<svg xmlns="http://www.w3.org/2000/svg" viewBox="0 0 230 230" style="enable-background:new 0 0 230 230" xml:space="preserve"><path d="M115.4 10h-105v105c0 58 47 105 105 105s105-47 105-105-47-105-105-105m0 183.9c-43.5 0-78.9-35.4-78.9-78.9s35.4-78.9 78.9-78.9c25.9 0 48.8 12.4 63.3 31.7l-10.8 7.7C155.8 59.3 136.8 49 115.4 49c-36.4 0-66 29.5-66 66s29.5 66 66 66c34.8 0 63.3-27.2 65.7-61.5h-60.7l9.5 17.7h-17.7l-15-24.8 15-23.5h17.7l-10.3 17.7H194c.3 2.9.5 5.8.5 8.7 0 43.2-35.6 78.6-79.1 78.6z" style="fill-rule:evenodd;clip-rule:evenodd;fill:#106186"/></svg>